<svg width="158" height="158" viewBox="0 0 158 158" fill="none" xmlns="http://www.w3.org/2000/svg">
<g filter="url(#filter0_d_115_38)">
<path d="M39.6094 43.7344H56.0625L79.0781 99.6094L102.094 43.7344H118.547L86.4375 117H71.7188L39.6094 43.7344Z" fill="#EFCDFB"/>
<path d="M39.6094 43.7344V40.7344H35.0191L36.8617 44.9386L39.6094 43.7344ZM56.0625 43.7344L58.8364 42.5918L58.0713 40.7344H56.0625V43.7344ZM79.0781 99.6094L76.3042 100.752L79.0781 107.486L81.852 100.752L79.0781 99.6094ZM102.094 43.7344V40.7344H100.085L99.3199 42.5918L102.094 43.7344ZM118.547 43.7344L121.295 44.9386L123.137 40.7344H118.547V43.7344ZM86.4375 117V120H88.3982L89.1852 118.204L86.4375 117ZM71.7188 117L68.971 118.204L69.7581 120H71.7188V117ZM39.6094 46.7344H56.0625V40.7344H39.6094V46.7344ZM53.2886 44.877L76.3042 100.752L81.852 98.4668L58.8364 42.5918L53.2886 44.877ZM81.852 100.752L104.868 44.877L99.3199 42.5918L76.3042 98.4668L81.852 100.752ZM102.094 46.7344H118.547V40.7344H102.094V46.7344ZM115.799 42.5302L83.6898 115.796L89.1852 118.204L121.295 44.9386L115.799 42.5302ZM86.4375 114H71.7188V120H86.4375V114ZM74.4665 115.796L42.3571 42.5302L36.8617 44.9386L68.971 118.204L74.4665 115.796Z" fill="url(#paint0_linear_115_38)"/>
</g>
<g filter="url(#filter1_d_115_38)">
<circle cx="79" cy="75" r="73.5" stroke="url(#paint1_linear_115_38)" stroke-width="3" shape-rendering="crispEdges"/>
</g>
<g filter="url(#filter2_d_115_38)">
<circle cx="79" cy="75" r="58" stroke="url(#paint2_linear_115_38)" stroke-width="4" shape-rendering="crispEdges"/>
</g>
<defs>
<filter id="filter0_d_115_38" x="35.6094" y="43.7344" width="86.9375" height="81.2656" filterUnits="userSpaceOnUse" color-interpolation-filters="sRGB">
<feFlood flood-opacity="0" result="BackgroundImageFix"/>
<feColorMatrix in="SourceAlpha" type="matrix" values="0 0 0 0 0 0 0 0 0 0 0 0 0 0 0 0 0 0 127 0" result="hardAlpha"/>
<feOffset dy="4"/>
<feGaussianBlur stdDeviation="2"/>
<feComposite in2="hardAlpha" operator="out"/>
<feColorMatrix type="matrix" values="0 0 0 0 0 0 0 0 0 0 0 0 0 0 0 0 0 0 0.25 0"/>
<feBlend mode="normal" in2="BackgroundImageFix" result="effect1_dropShadow_115_38"/>
<feBlend mode="normal" in="SourceGraphic" in2="effect1_dropShadow_115_38" result="shape"/>
</filter>
<filter id="filter1_d_115_38" x="0" y="0" width="158" height="158" filterUnits="userSpaceOnUse" color-interpolation-filters="sRGB">
<feFlood flood-opacity="0" result="BackgroundImageFix"/>
<feColorMatrix in="SourceAlpha" type="matrix" values="0 0 0 0 0 0 0 0 0 0 0 0 0 0 0 0 0 0 127 0" result="hardAlpha"/>
<feOffset dy="4"/>
<feGaussianBlur stdDeviation="2"/>
<feComposite in2="hardAlpha" operator="out"/>
<feColorMatrix type="matrix" values="0 0 0 0 0 0 0 0 0 0 0 0 0 0 0 0 0 0 0.25 0"/>
<feBlend mode="normal" in2="BackgroundImageFix" result="effect1_dropShadow_115_38"/>
<feBlend mode="normal" in="SourceGraphic" in2="effect1_dropShadow_115_38" result="shape"/>
</filter>
<filter id="filter2_d_115_38" x="15" y="15" width="128" height="128" filterUnits="userSpaceOnUse" color-interpolation-filters="sRGB">
<feFlood flood-opacity="0" result="BackgroundImageFix"/>
<feColorMatrix in="SourceAlpha" type="matrix" values="0 0 0 0 0 0 0 0 0 0 0 0 0 0 0 0 0 0 127 0" result="hardAlpha"/>
<feOffset dy="4"/>
<feGaussianBlur stdDeviation="2"/>
<feComposite in2="hardAlpha" operator="out"/>
<feColorMatrix type="matrix" values="0 0 0 0 0 0 0 0 0 0 0 0 0 0 0 0 0 0 0.25 0"/>
<feBlend mode="normal" in2="BackgroundImageFix" result="effect1_dropShadow_115_38"/>
<feBlend mode="normal" in="SourceGraphic" in2="effect1_dropShadow_115_38" result="shape"/>
</filter>
<linearGradient id="paint0_linear_115_38" x1="79" y1="44" x2="79" y2="117" gradientUnits="userSpaceOnUse">
<stop stop-color="#EB0000"/>
<stop offset="0.166667" stop-color="#FF7A00"/>
<stop offset="0.333333" stop-color="#FAFF00"/>
<stop offset="0.5" stop-color="#05FF00"/>
<stop offset="0.666667" stop-color="#00FFD1"/>
<stop offset="0.833333" stop-color="#000AFF"/>
<stop offset="1" stop-color="#C000D1"/>
</linearGradient>
<linearGradient id="paint1_linear_115_38" x1="108" y1="5" x2="29" y2="129" gradientUnits="userSpaceOnUse">
<stop stop-color="#FF0000"/>
<stop offset="0.191179" stop-color="#FF5C00"/>
<stop offset="0.354296" stop-color="#FAFF00"/>
<stop offset="0.510808" stop-color="#24FF00"/>
<stop offset="0.668665" stop-color="#00FFF0"/>
<stop offset="0.834412" stop-color="#0500FF"/>
<stop offset="1" stop-color="#FA00FF"/>
</linearGradient>
<linearGradient id="paint2_linear_115_38" x1="79" y1="15" x2="122.5" y2="143.5" gradientUnits="userSpaceOnUse">
<stop stop-color="#E50000"/>
<stop offset="0.148797" stop-color="#FF6B00"/>
<stop offset="0.296192" stop-color="#EBFF00"/>
<stop offset="0.443586" stop-color="#05FF00"/>
<stop offset="0.59098" stop-color="#00D1FF"/>
<stop offset="0.727847" stop-color="#1400FF"/>
<stop offset="0.864713" stop-color="#FF00E5"/>
<stop offset="1" stop-color="#FF007A"/>
</linearGradient>
</defs>
</svg>
